<mxfile host="app.diagrams.net" modified="2020-11-03T14:28:45.074Z" agent="5.0 (Windows)" etag="Dv1V4JAOG2S6MKiG9V4z" version="13.8.8" type="github">
  <diagram id="bpKndWMucG8eQkYXfJOJ" name="Page-1">
    <mxGraphModel dx="1467" dy="749" grid="1" gridSize="10" guides="1" tooltips="1" connect="1" arrows="1" fold="1" page="1" pageScale="1" pageWidth="827" pageHeight="1169" math="0" shadow="0">
      <root>
        <mxCell id="0" />
        <mxCell id="1" parent="0" />
        <mxCell id="i5GxBc1laIGmJipiJ8M9-11" value="" style="whiteSpace=wrap;html=1;aspect=fixed;" vertex="1" parent="1">
          <mxGeometry x="290" y="50" width="300" height="300" as="geometry" />
        </mxCell>
        <mxCell id="i5GxBc1laIGmJipiJ8M9-1" value="" style="whiteSpace=wrap;html=1;aspect=fixed;" vertex="1" parent="1">
          <mxGeometry x="315" y="70" width="250" height="250" as="geometry" />
        </mxCell>
        <mxCell id="i5GxBc1laIGmJipiJ8M9-2" value="" style="rounded=1;whiteSpace=wrap;html=1;" vertex="1" parent="1">
          <mxGeometry x="345" y="120" width="120" height="60" as="geometry" />
        </mxCell>
        <mxCell id="i5GxBc1laIGmJipiJ8M9-3" value="" style="rounded=1;whiteSpace=wrap;html=1;" vertex="1" parent="1">
          <mxGeometry x="345" y="240" width="194" height="60" as="geometry" />
        </mxCell>
        <mxCell id="i5GxBc1laIGmJipiJ8M9-4" value="DOCKER" style="text;html=1;strokeColor=none;fillColor=none;align=center;verticalAlign=middle;whiteSpace=wrap;rounded=0;" vertex="1" parent="1">
          <mxGeometry x="420" y="80" width="40" height="20" as="geometry" />
        </mxCell>
        <mxCell id="i5GxBc1laIGmJipiJ8M9-5" value="BLAZEGRAPH" style="text;html=1;strokeColor=none;fillColor=none;align=center;verticalAlign=middle;whiteSpace=wrap;rounded=0;" vertex="1" parent="1">
          <mxGeometry x="365" y="140" width="80" height="20" as="geometry" />
        </mxCell>
        <mxCell id="i5GxBc1laIGmJipiJ8M9-6" value="GRAPHQL/SERVER" style="text;html=1;strokeColor=none;fillColor=none;align=center;verticalAlign=middle;whiteSpace=wrap;rounded=0;" vertex="1" parent="1">
          <mxGeometry x="385" y="240" width="110" height="20" as="geometry" />
        </mxCell>
        <mxCell id="i5GxBc1laIGmJipiJ8M9-12" value="DATATOURISM/API" style="text;html=1;strokeColor=none;fillColor=none;align=center;verticalAlign=middle;whiteSpace=wrap;rounded=0;" vertex="1" parent="1">
          <mxGeometry x="359" y="50" width="140" height="20" as="geometry" />
        </mxCell>
        <mxCell id="i5GxBc1laIGmJipiJ8M9-13" value="" style="shape=cylinder3;whiteSpace=wrap;html=1;boundedLbl=1;backgroundOutline=1;size=15;" vertex="1" parent="1">
          <mxGeometry x="670" y="110" width="80" height="80" as="geometry" />
        </mxCell>
        <mxCell id="i5GxBc1laIGmJipiJ8M9-14" value="DATATOURISM / SERVER" style="text;html=1;strokeColor=none;fillColor=none;align=center;verticalAlign=middle;whiteSpace=wrap;rounded=0;" vertex="1" parent="1">
          <mxGeometry x="660" y="200" width="100" height="20" as="geometry" />
        </mxCell>
        <mxCell id="i5GxBc1laIGmJipiJ8M9-15" value="" style="endArrow=classic;html=1;entryX=1;entryY=0.25;entryDx=0;entryDy=0;strokeColor=#FF0000;" edge="1" parent="1" target="i5GxBc1laIGmJipiJ8M9-2">
          <mxGeometry width="50" height="50" relative="1" as="geometry">
            <mxPoint x="660" y="135" as="sourcePoint" />
            <mxPoint x="640" y="130" as="targetPoint" />
          </mxGeometry>
        </mxCell>
        <mxCell id="i5GxBc1laIGmJipiJ8M9-16" value="&lt;font color=&quot;#FF0000&quot;&gt;Flux Update&lt;/font&gt;" style="text;html=1;strokeColor=none;align=center;verticalAlign=middle;whiteSpace=wrap;rounded=0;fillColor=#ffffff;" vertex="1" parent="1">
          <mxGeometry x="600" y="110" width="40" height="20" as="geometry" />
        </mxCell>
        <mxCell id="i5GxBc1laIGmJipiJ8M9-23" value="" style="rounded=1;whiteSpace=wrap;html=1;fillColor=#ffffff;" vertex="1" parent="1">
          <mxGeometry x="360" y="260" width="70" height="30" as="geometry" />
        </mxCell>
        <mxCell id="i5GxBc1laIGmJipiJ8M9-25" style="edgeStyle=orthogonalEdgeStyle;rounded=0;orthogonalLoop=1;jettySize=auto;html=1;exitX=0.5;exitY=0;exitDx=0;exitDy=0;entryX=1;entryY=0.75;entryDx=0;entryDy=0;strokeColor=#FF0000;" edge="1" parent="1" source="i5GxBc1laIGmJipiJ8M9-24" target="i5GxBc1laIGmJipiJ8M9-2">
          <mxGeometry relative="1" as="geometry" />
        </mxCell>
        <mxCell id="i5GxBc1laIGmJipiJ8M9-24" value="SPARQL" style="rounded=1;whiteSpace=wrap;html=1;fillColor=#ffffff;" vertex="1" parent="1">
          <mxGeometry x="450" y="260" width="70" height="30" as="geometry" />
        </mxCell>
        <mxCell id="i5GxBc1laIGmJipiJ8M9-27" style="edgeStyle=orthogonalEdgeStyle;rounded=0;orthogonalLoop=1;jettySize=auto;html=1;exitX=0.25;exitY=1;exitDx=0;exitDy=0;entryX=0.5;entryY=0;entryDx=0;entryDy=0;strokeColor=#FF0000;" edge="1" parent="1" source="i5GxBc1laIGmJipiJ8M9-2" target="i5GxBc1laIGmJipiJ8M9-23">
          <mxGeometry relative="1" as="geometry" />
        </mxCell>
        <mxCell id="i5GxBc1laIGmJipiJ8M9-38" style="edgeStyle=orthogonalEdgeStyle;rounded=0;orthogonalLoop=1;jettySize=auto;html=1;exitX=0.5;exitY=1;exitDx=0;exitDy=0;strokeColor=#FF0000;entryX=0;entryY=0.75;entryDx=0;entryDy=0;" edge="1" parent="1" source="i5GxBc1laIGmJipiJ8M9-28" target="i5GxBc1laIGmJipiJ8M9-32">
          <mxGeometry relative="1" as="geometry">
            <mxPoint x="460" y="600" as="targetPoint" />
            <Array as="points">
              <mxPoint x="395" y="373" />
              <mxPoint x="260" y="373" />
              <mxPoint x="260" y="618" />
            </Array>
          </mxGeometry>
        </mxCell>
        <mxCell id="i5GxBc1laIGmJipiJ8M9-28" value="JSON" style="text;html=1;strokeColor=none;fillColor=none;align=center;verticalAlign=middle;whiteSpace=wrap;rounded=0;" vertex="1" parent="1">
          <mxGeometry x="375" y="265" width="40" height="20" as="geometry" />
        </mxCell>
        <mxCell id="i5GxBc1laIGmJipiJ8M9-29" value="&lt;font color=&quot;#00FF00&quot;&gt;QUERY&lt;/font&gt;" style="text;html=1;strokeColor=none;fillColor=none;align=center;verticalAlign=middle;whiteSpace=wrap;rounded=0;" vertex="1" parent="1">
          <mxGeometry x="499" y="190" width="40" height="20" as="geometry" />
        </mxCell>
        <mxCell id="i5GxBc1laIGmJipiJ8M9-30" value="&lt;font color=&quot;#00FF00&quot;&gt;RESULTS&lt;/font&gt;" style="text;html=1;strokeColor=none;fillColor=none;align=center;verticalAlign=middle;whiteSpace=wrap;rounded=0;" vertex="1" parent="1">
          <mxGeometry x="385" y="190" width="40" height="20" as="geometry" />
        </mxCell>
        <mxCell id="i5GxBc1laIGmJipiJ8M9-31" style="edgeStyle=orthogonalEdgeStyle;rounded=0;orthogonalLoop=1;jettySize=auto;html=1;exitX=0.5;exitY=1;exitDx=0;exitDy=0;strokeColor=#FF0000;" edge="1" parent="1" source="i5GxBc1laIGmJipiJ8M9-11" target="i5GxBc1laIGmJipiJ8M9-11">
          <mxGeometry relative="1" as="geometry" />
        </mxCell>
        <mxCell id="i5GxBc1laIGmJipiJ8M9-32" value="" style="whiteSpace=wrap;html=1;aspect=fixed;rounded=0;fillColor=#ffffff;" vertex="1" parent="1">
          <mxGeometry x="337" y="460" width="210" height="210" as="geometry" />
        </mxCell>
        <mxCell id="i5GxBc1laIGmJipiJ8M9-37" style="edgeStyle=orthogonalEdgeStyle;rounded=0;orthogonalLoop=1;jettySize=auto;html=1;exitX=0;exitY=0.25;exitDx=0;exitDy=0;strokeColor=#FF0000;" edge="1" parent="1" source="i5GxBc1laIGmJipiJ8M9-34">
          <mxGeometry relative="1" as="geometry">
            <mxPoint x="490" y="300" as="targetPoint" />
            <Array as="points">
              <mxPoint x="590" y="505" />
              <mxPoint x="590" y="390" />
              <mxPoint x="490" y="390" />
            </Array>
          </mxGeometry>
        </mxCell>
        <mxCell id="i5GxBc1laIGmJipiJ8M9-34" value="" style="whiteSpace=wrap;html=1;aspect=fixed;rounded=0;fillColor=#ffffff;" vertex="1" parent="1">
          <mxGeometry x="361" y="480" width="100" height="100" as="geometry" />
        </mxCell>
        <mxCell id="i5GxBc1laIGmJipiJ8M9-35" value="&lt;font color=&quot;#0000CC&quot;&gt;REACT-NATIVE&lt;/font&gt;" style="text;html=1;strokeColor=none;fillColor=none;align=center;verticalAlign=middle;whiteSpace=wrap;rounded=0;" vertex="1" parent="1">
          <mxGeometry x="382" y="440" width="100" height="20" as="geometry" />
        </mxCell>
        <mxCell id="i5GxBc1laIGmJipiJ8M9-36" value="APOLLO:/ API" style="text;html=1;strokeColor=none;fillColor=none;align=center;verticalAlign=middle;whiteSpace=wrap;rounded=0;" vertex="1" parent="1">
          <mxGeometry x="362" y="480" width="90" height="20" as="geometry" />
        </mxCell>
        <mxCell id="i5GxBc1laIGmJipiJ8M9-39" value="&lt;font color=&quot;#00FF00&quot;&gt;QUERY GRAPHQL&lt;/font&gt;" style="text;html=1;strokeColor=none;fillColor=none;align=center;verticalAlign=middle;whiteSpace=wrap;rounded=0;" vertex="1" parent="1">
          <mxGeometry x="565" y="430" width="181" height="20" as="geometry" />
        </mxCell>
        <mxCell id="i5GxBc1laIGmJipiJ8M9-41" value="&lt;font color=&quot;#00FF00&quot;&gt;RESULTS JSON&lt;/font&gt;" style="text;html=1;strokeColor=none;fillColor=none;align=center;verticalAlign=middle;whiteSpace=wrap;rounded=0;" vertex="1" parent="1">
          <mxGeometry x="140" y="470" width="110" height="20" as="geometry" />
        </mxCell>
      </root>
    </mxGraphModel>
  </diagram>
</mxfile>
